<svg width="120" height="120" viewBox="0 0 120 120" fill="none" xmlns="http://www.w3.org/2000/svg">
<path d="M61.25 82.125L89.75 53.625L84.5 48.5L61.375 71.75L49.25 59.625L44 64.875L61.25 82.125ZM32.5 105C30.5 105 28.75 104.25 27.25 102.75C25.75 101.25 25 99.5 25 97.5V27.5C25 25.5 25.75 23.75 27.25 22.25C28.75 20.75 30.5 20 32.5 20H102.5C104.5 20 106.25 20.75 107.75 22.25C109.25 23.75 110 25.5 110 27.5V97.5C110 99.5 109.25 101.25 107.75 102.75C106.25 104.25 104.5 105 102.5 105H32.5ZM32.5 97.5H102.5V27.5H32.5V97.5ZM17.5 120C15.5 120 13.75 119.25 12.25 117.75C10.75 116.25 10 114.5 10 112.5V35H17.5V112.5H95V120H17.5Z" fill="white"/>
</svg>
