<svg width="120" height="120" viewBox="0 0 120 120" fill="none" xmlns="http://www.w3.org/2000/svg">
<path d="M0 120L25.8933 43.9951L72.8074 92.6675L0 120ZM14.0603 105.238L57.7726 88.8672L29.5128 59.0499L14.0603 105.238ZM66.4037 66.6504L61.6705 61.6809L95.0812 26.6017C98.051 23.4836 101.81 21.9001 106.357 21.8514C110.905 21.8027 114.664 23.3374 117.633 26.4555L120 28.9403L115.267 33.9099L112.622 31.1328C110.858 29.2814 108.817 28.3313 106.497 28.2826C104.176 28.2339 102.088 29.1839 100.232 31.1328L66.4037 66.6504ZM44.2691 43.9951L39.536 39.0256L43.7123 34.6407C45.8469 32.3995 46.8445 29.8417 46.7053 26.9671C46.5661 24.0926 45.5684 21.6809 43.7123 19.732L39.8144 15.6395L44.5476 10.6699L48.1671 14.4702C51.4153 17.8806 53.0162 22.1437 52.9698 27.2594C52.9234 32.3752 51.2761 36.6383 48.0278 40.0487L44.2691 43.9951ZM55.5452 55.2497L50.8121 50.2802L71.9722 28.0633C73.7355 26.2119 74.594 23.849 74.5476 20.9744C74.5012 18.0999 73.5963 15.7369 71.833 13.8855L63.3411 4.96955L68.0742 0L76.8446 9.20828C79.7216 12.3264 81.2065 16.2485 81.2993 20.9744C81.3921 25.7004 79.9536 29.6224 76.9838 32.7406L55.5452 55.2497ZM77.5406 78.4897L72.8074 73.5201L79.3503 66.6504C82.5986 63.24 86.4965 61.486 91.0441 61.3886C95.5917 61.2911 99.4896 62.9476 102.738 66.3581L109.838 73.8124L105.104 78.782L97.8654 71.1815C95.7309 68.9403 93.5035 67.8197 91.1833 67.8197C88.8631 67.8197 86.6357 68.9403 84.5012 71.1815L77.5406 78.4897Z" fill="#C60EB3"/>
</svg>
