<svg width="100" height="100" viewBox="0 0 100 100" fill="none" xmlns="http://www.w3.org/2000/svg">
<path d="M12.9151 100C9.30709 100 6.25256 98.7291 3.75154 96.1875C1.25051 93.6458 0 90.5417 0 86.875V70H14.7601V0H88.5609V48.25C87.2489 48.25 85.9779 48.5 84.7478 49C83.5178 49.5 82.3288 50.2083 81.1808 51.125V7.5H22.1402V70H62.4846L55.1046 77.5H7.38007V86.875C7.38007 88.4583 7.91308 89.7917 8.97909 90.875C10.0451 91.9583 11.3161 92.5 12.7921 92.5H49.2005V100H12.9151ZM56.5806 100V86.625L78.2288 64.625L81.6728 68.125L61.5006 88.625V95H67.7737L87.9459 74.5L91.3899 78L69.7417 100H56.5806ZM91.3899 78L78.2288 64.625L85.7319 57C86.4699 56.25 87.3309 55.875 88.3149 55.875C89.2989 55.875 90.1599 56.25 90.8979 57L98.893 65.125C99.631 65.875 100 66.75 100 67.75C100 68.75 99.631 69.625 98.893 70.375L91.3899 78ZM29.5203 30V22.5H73.8007V30H29.5203ZM29.5203 45V37.5H73.8007V45H29.5203Z" fill="#F9F9F9"/>
</svg>
